{"title":"The.Uninvited.2009.1080p.BRRip.x264.AC3-Kay","uid":9777546,"size":2450674564,"categoryP":"video","categoryS":"hd___movies","magnet":"?xt=urn:btih:39fb74596e8034a4944c69590dcecce3ed82d42d&amp;dn=The.Uninvited.2009.1080p.BRRip.x264.AC3-Kay&amp;tr=udp%3A%2F%2Ftracker.openbittorrent.com%3A80&amp;tr=udp%3A%2F%2Fopen.demonii.com%3A1337&amp;tr=udp%3A%2F%2Ftracker.coppersurfer.tk%3A6969&amp;tr=udp%3A%2F%2Fexodus.desync.com%3A6969","seeders":0,"leechers":1,"uploader":"thegame2012","files":-1,"time":1395014972,"description":"The.Uninvited.2009.1080p.BRRip.x264.AC3-Kay\n\n\nGeneral\nFormat                           : Matroska\nFile size                        : 2.26 GiB\nDuration                         : 1h 27mn\nOverall bit rate                 : 3 700 Kbps\n\n\nVideo\nID                               : 1\nFormat                           : AVC\nFormat/Info                      : Advanced Video Codec\nFormat profile                   : &lt;a class=&quot;__cf_email__&quot; href=&quot;/cdn-cgi/l/email-protection&quot; data-cfemail=&quot;0f476668674f433a213f&quot;&gt;[email&amp;#160;protected]&lt;/a&gt;&lt;script cf-hash='f9e31' type=&quot;text/javascript&quot;&gt;\n/* &lt;![CDATA[ */!function(){try{var t=&quot;currentScript&quot;in document?document.currentScript:function(){for(var t=document.getElementsByTagName(&quot;script&quot;),e=t.length;e--;)if(t[e].getAttribute(&quot;cf-hash&quot;))return t[e]}();if(t&amp;&amp;t.previousSibling){var e,r,n,i,c=t.previousSibling,a=c.getAttribute(&quot;data-cfemail&quot;);if(a){for(e=&quot;&quot;,r=parseInt(a.substr(0,2),16),n=2;a.length-n;n+=2)i=parseInt(a.substr(n,2),16)^r,e+=String.fromCharCode(i);e=document.createTextNode(e),c.parentNode.replaceChild(e,c)}}}catch(u){}}();/* ]]&gt; */&lt;/script&gt;\nFormat settings, CABAC           : Yes\nFormat settings, ReFrames        : 5 frames\nDuration                         : 1h 27mn\nBit rate                         : 3 178 Kbps\nWidth                            : 1 920 pixels\nHeight                           : 1 072 pixels\nDisplay aspect ratio             : 16:9\nOriginal display aspect ratio    : 16:9\nFrame rate                       : 23.976 fps\nResolution                       : 8 bits\nColorimetry                      : 4:2:0\nScan type                        : Progressive\nBits/(Pixel*Frame)               : 0.064\nStream size                      : 1.94 GiB (86%)\nWriting library                  : x264 core 133 r2334 a3ac64b\n\n\nAudio\nID                               : 2\nFormat                           : AC-3\nFormat/Info                      : Audio Coding 3\nCodec ID                         : A_AC3\nDuration                         : 1h 27mn\nBit rate mode                    : Constant\nBit rate                         : 448 Kbps\nChannel(s)                       : 6 channels\nChannel positions                : Front: L C R, Surround: L R, LFE\nSampling rate                    : 48.0 KHz\nStream size                      : 280 MiB (12%)\nLanguage                         : English\n\n\nScreencaps: &lt;a href=&quot;\nhttp://s26.postimg.org/emggwgrah/The_Uninvited_2009_1080p_BRRip_x264_AC3_Kay_mkv.jpg&quot; rel=&quot;nofollow&quot; target=&quot;_NEW&quot;&gt;\nhttp://s26.postimg.org/emggwgrah/The_Uninvited_2009_1080p_BRRip_x264_AC3_Kay_mkv.jpg&lt;/a&gt; &lt;a href=&quot;\nhttp://s26.postimg.org/hcl7fwyll/The_Uninvited_2009_1080p_BRRip_x264_AC3_Kay_mkv.jpg&quot; rel=&quot;nofollow&quot; target=&quot;_NEW&quot;&gt;\nhttp://s26.postimg.org/hcl7fwyll/The_Uninvited_2009_1080p_BRRip_x264_AC3_Kay_mkv.jpg&lt;/a&gt; &lt;a href=&quot;\nhttp://s26.postimg.org/3llbrfz1l/The_Uninvited_2009_1080p_BRRip_x264_AC3_Kay_mkv.jpg&quot; rel=&quot;nofollow&quot; target=&quot;_NEW&quot;&gt;\nhttp://s26.postimg.org/3llbrfz1l/The_Uninvited_2009_1080p_BRRip_x264_AC3_Kay_mkv.jpg&lt;/a&gt; &lt;a href=&quot;\nhttp://s26.postimg.org/pjhsl8e21/The_Uninvited_2009_1080p_BRRip_x264_AC3_Kay_mkv.jpg&quot; rel=&quot;nofollow&quot; target=&quot;_NEW&quot;&gt;\nhttp://s26.postimg.org/pjhsl8e21/The_Uninvited_2009_1080p_BRRip_x264_AC3_Kay_mkv.jpg&lt;/a&gt; &lt;a href=&quot;\nhttp://s26.postimg.org/q6c3x0lk9/The_Uninvited_2009_1080p_BRRip_x264_AC3_Kay_mkv.jpg&quot; rel=&quot;nofollow&quot; target=&quot;_NEW&quot;&gt;\nhttp://s26.postimg.org/q6c3x0lk9/The_Uninvited_2009_1080p_BRRip_x264_AC3_Kay_mkv.jpg&lt;/a&gt;\n\n\nPlease rate/comment/seed!\n\nThanks\n-Kay","torrent":{"xt":"urn:btih:39fb74596e8034a4944c69590dcecce3ed82d42d","amp;dn":"The.Uninvited.2009.1080p.BRRip.x264.AC3-Kay","amp;tr":["udp%3A%2F%2Ftracker.openbittorrent.com%3A80","udp%3A%2F%2Fopen.demonii.com%3A1337","udp%3A%2F%2Ftracker.coppersurfer.tk%3A6969","udp%3A%2F%2Fexodus.desync.com%3A6969"],"infoHash":"39fb74596e8034a4944c69590dcecce3ed82d42d","infoHashBuffer":{"type":"Buffer","data":[57,251,116,89,110,128,52,164,148,76,105,89,13,206,204,227,237,130,212,45]},"announce":[],"urlList":[]}}